<mxfile host="Electron" modified="2023-08-14T21:07:45.021Z" agent="Mozilla/5.0 (Macintosh; Intel Mac OS X 10_15_7) AppleWebKit/537.36 (KHTML, like Gecko) draw.io/21.6.8 Chrome/114.0.5735.289 Electron/25.5.0 Safari/537.36" etag="U-VESQ3ByKp7gzaVQO3l" version="21.6.8" type="device">
  <diagram name="Page-1" id="929967ad-93f9-6ef4-fab6-5d389245f69c">
    <mxGraphModel dx="2385" dy="2085" grid="1" gridSize="10" guides="1" tooltips="1" connect="1" arrows="1" fold="1" page="0" pageScale="1.5" pageWidth="1169" pageHeight="826" background="none" math="0" shadow="0">
      <root>
        <mxCell id="0" style=";html=1;" />
        <mxCell id="1" style=";html=1;" parent="0" />
        <mxCell id="1672d66443f91eb5-23" value="&lt;font style=&quot;&quot;&gt;&lt;font style=&quot;font-size: 16px;&quot;&gt;&lt;br&gt;&lt;i&gt;PSD_meg_qc()&lt;/i&gt;&lt;br&gt;&lt;/font&gt;&lt;/font&gt;" style="text;strokeColor=none;fillColor=none;html=1;fontSize=28;fontStyle=1;verticalAlign=middle;align=center;fontFamily=Helvetica;" parent="1" vertex="1">
          <mxGeometry x="200" y="-20" width="1010" height="60" as="geometry" />
        </mxCell>
        <mxCell id="Bhu07w7uQ9w6N7AYjYX2-7" value="" style="edgeStyle=orthogonalEdgeStyle;rounded=0;orthogonalLoop=1;jettySize=auto;html=1;entryX=0.5;entryY=0;entryDx=0;entryDy=0;" parent="1" source="Bhu07w7uQ9w6N7AYjYX2-1" target="Bhu07w7uQ9w6N7AYjYX2-9" edge="1">
          <mxGeometry relative="1" as="geometry">
            <mxPoint x="700" y="140" as="targetPoint" />
          </mxGeometry>
        </mxCell>
        <mxCell id="Bhu07w7uQ9w6N7AYjYX2-1" value="" style="ellipse;fillColor=strokeColor;" parent="1" vertex="1">
          <mxGeometry x="690" y="70" width="30" height="30" as="geometry" />
        </mxCell>
        <mxCell id="Bhu07w7uQ9w6N7AYjYX2-18" style="edgeStyle=orthogonalEdgeStyle;rounded=0;orthogonalLoop=1;jettySize=auto;html=1;fontColor=#000000;entryX=0;entryY=0.5;entryDx=0;entryDy=0;" parent="1" source="Bhu07w7uQ9w6N7AYjYX2-2" target="Bhu07w7uQ9w6N7AYjYX2-10" edge="1">
          <mxGeometry relative="1" as="geometry">
            <mxPoint x="570" y="190" as="targetPoint" />
          </mxGeometry>
        </mxCell>
        <mxCell id="Bhu07w7uQ9w6N7AYjYX2-2" value="Input:&lt;br&gt;&lt;br&gt;Raw data,&amp;nbsp;&lt;br&gt;Config parameters&lt;br&gt;" style="html=1;" parent="1" vertex="1">
          <mxGeometry x="240" y="145" width="200" height="80" as="geometry" />
        </mxCell>
        <mxCell id="Bhu07w7uQ9w6N7AYjYX2-8" value="" style="group;flipV=1;" parent="1" vertex="1" connectable="0">
          <mxGeometry x="575" y="145" width="250" height="90" as="geometry" />
        </mxCell>
        <mxCell id="Bhu07w7uQ9w6N7AYjYX2-9" value="Compute &lt;b&gt;PSD&amp;nbsp;&lt;span style=&quot;border-color: var(--border-color);&quot;&gt;for &lt;/span&gt;&lt;/b&gt;&lt;b style=&quot;border-color: var(--border-color);&quot;&gt;each channel&lt;/b&gt;&lt;br&gt;&lt;br&gt;&lt;i&gt;&lt;b&gt;raw.&lt;span style=&quot;border-color: var(--border-color); font-family: Menlo, Monaco, &amp;quot;Courier New&amp;quot;, monospace;&quot;&gt;compute_psd()&lt;/span&gt;&lt;/b&gt;&lt;/i&gt;" style="html=1;align=center;verticalAlign=middle;rounded=1;absoluteArcSize=1;arcSize=25;dashed=0;fontFamily=Helvetica;fontSize=12;whiteSpace=wrap;container=0;noLabel=0;imageAlign=center;" parent="Bhu07w7uQ9w6N7AYjYX2-8" vertex="1">
          <mxGeometry x="10" width="240" height="80" as="geometry" />
        </mxCell>
        <mxCell id="Bhu07w7uQ9w6N7AYjYX2-10" value="pinIn 2" style="fontStyle=0;labelPosition=left;verticalLabelPosition=middle;align=right;verticalAlign=middle;spacingLeft=2;fontFamily=Helvetica;fontSize=12;flipH=0;resizable=0;container=0;noLabel=1;" parent="Bhu07w7uQ9w6N7AYjYX2-8" vertex="1">
          <mxGeometry y="25" width="10" height="30" as="geometry" />
        </mxCell>
        <mxCell id="Bhu07w7uQ9w6N7AYjYX2-11" value="pinIn 1" style="fontStyle=0;labelPosition=center;verticalLabelPosition=top;align=center;verticalAlign=bottom;spacingLeft=2;fontFamily=Helvetica;fontSize=12;resizable=0;container=0;noLabel=1;" parent="Bhu07w7uQ9w6N7AYjYX2-8" vertex="1">
          <mxGeometry x="115" y="80" width="30" height="10" as="geometry" />
        </mxCell>
        <mxCell id="Bhu07w7uQ9w6N7AYjYX2-12" value="" style="group;flipV=0;flipH=1;" parent="1" vertex="1" connectable="0">
          <mxGeometry x="585" y="285" width="250" height="90" as="geometry" />
        </mxCell>
        <mxCell id="Bhu07w7uQ9w6N7AYjYX2-13" value="Plot &lt;b&gt;PSD for each channel,&amp;nbsp;&lt;br&gt;&lt;/b&gt;output interactive figure&lt;br&gt;&lt;br&gt;&lt;i&gt;&lt;b&gt;&lt;span style=&quot;border-color: var(--border-color);&quot;&gt;Plot_psd&lt;/span&gt;&lt;span style=&quot;border-color: var(--border-color); font-family: Menlo, Monaco, &amp;quot;Courier New&amp;quot;, monospace;&quot;&gt;()&lt;/span&gt;&lt;/b&gt;&lt;/i&gt;" style="html=1;align=center;verticalAlign=middle;rounded=1;absoluteArcSize=1;arcSize=25;dashed=0;fontFamily=Helvetica;fontSize=12;whiteSpace=wrap;container=0;noLabel=0;imageAlign=center;" parent="Bhu07w7uQ9w6N7AYjYX2-12" vertex="1">
          <mxGeometry y="10" width="240" height="80" as="geometry" />
        </mxCell>
        <mxCell id="Bhu07w7uQ9w6N7AYjYX2-14" value="pinIn 2" style="fontStyle=0;labelPosition=left;verticalLabelPosition=middle;align=right;verticalAlign=middle;spacingLeft=2;fontFamily=Helvetica;fontSize=12;flipH=0;resizable=0;container=0;noLabel=1;" parent="Bhu07w7uQ9w6N7AYjYX2-12" vertex="1">
          <mxGeometry x="240" y="35" width="10" height="30" as="geometry" />
        </mxCell>
        <mxCell id="Bhu07w7uQ9w6N7AYjYX2-15" value="pinIn 1" style="fontStyle=0;labelPosition=center;verticalLabelPosition=top;align=center;verticalAlign=bottom;spacingLeft=2;fontFamily=Helvetica;fontSize=12;resizable=0;container=0;noLabel=1;" parent="Bhu07w7uQ9w6N7AYjYX2-12" vertex="1">
          <mxGeometry x="105" width="30" height="10" as="geometry" />
        </mxCell>
        <mxCell id="Bhu07w7uQ9w6N7AYjYX2-16" value="1" style="ellipse;fontColor=#000000;" parent="1" vertex="1">
          <mxGeometry x="920" y="320" width="30" height="30" as="geometry" />
        </mxCell>
        <mxCell id="Bhu07w7uQ9w6N7AYjYX2-17" value="" style="edgeStyle=orthogonalEdgeStyle;rounded=0;orthogonalLoop=1;jettySize=auto;html=1;fontColor=#000000;" parent="1" source="Bhu07w7uQ9w6N7AYjYX2-14" target="Bhu07w7uQ9w6N7AYjYX2-16" edge="1">
          <mxGeometry relative="1" as="geometry" />
        </mxCell>
        <mxCell id="Bhu07w7uQ9w6N7AYjYX2-19" value="" style="edgeStyle=orthogonalEdgeStyle;rounded=0;orthogonalLoop=1;jettySize=auto;html=1;fontColor=#000000;exitX=0.75;exitY=1;exitDx=0;exitDy=0;entryX=0.75;entryY=0;entryDx=0;entryDy=0;" parent="1" source="Bhu07w7uQ9w6N7AYjYX2-11" target="Bhu07w7uQ9w6N7AYjYX2-15" edge="1">
          <mxGeometry relative="1" as="geometry">
            <mxPoint x="720" y="240" as="sourcePoint" />
          </mxGeometry>
        </mxCell>
        <mxCell id="Bhu07w7uQ9w6N7AYjYX2-20" value="" style="group;fontColor=#000000;" parent="1" vertex="1" connectable="0">
          <mxGeometry x="585" y="440" width="250" height="100" as="geometry" />
        </mxCell>
        <mxCell id="Bhu07w7uQ9w6N7AYjYX2-21" value="Compute&amp;nbsp;&lt;b&gt;mean PSD &lt;/b&gt;over all channels&amp;nbsp;&amp;nbsp;&lt;br&gt;&lt;br&gt;&lt;div style=&quot;font-family: Menlo, Monaco, &amp;quot;Courier New&amp;quot;, monospace; line-height: 18px;&quot;&gt;&lt;i&gt;&lt;b&gt;np.mean()&lt;/b&gt;&lt;/i&gt;&lt;/div&gt;" style="html=1;align=center;verticalAlign=middle;rounded=1;absoluteArcSize=1;arcSize=25;dashed=0;fontFamily=Helvetica;fontSize=12;whiteSpace=wrap;container=0;noLabel=0;imageAlign=center;fontColor=#000000;" parent="Bhu07w7uQ9w6N7AYjYX2-20" vertex="1">
          <mxGeometry y="10" width="240" height="80" as="geometry" />
        </mxCell>
        <mxCell id="Bhu07w7uQ9w6N7AYjYX2-22" value="pinOut 2" style="fontStyle=0;labelPosition=center;verticalLabelPosition=bottom;align=center;verticalAlign=top;spacingLeft=2;fontFamily=Helvetica;fontSize=12;resizable=0;container=0;noLabel=1;fontColor=#000000;" parent="Bhu07w7uQ9w6N7AYjYX2-20" vertex="1">
          <mxGeometry x="105" y="90" width="30" height="10" as="geometry" />
        </mxCell>
        <mxCell id="Bhu07w7uQ9w6N7AYjYX2-24" value="pinIn 1" style="fontStyle=0;labelPosition=center;verticalLabelPosition=top;align=center;verticalAlign=bottom;spacingLeft=2;fontFamily=Helvetica;fontSize=12;resizable=0;container=0;noLabel=1;fontColor=#000000;" parent="Bhu07w7uQ9w6N7AYjYX2-20" vertex="1">
          <mxGeometry x="105" width="30" height="10" as="geometry" />
        </mxCell>
        <mxCell id="Bhu07w7uQ9w6N7AYjYX2-25" style="edgeStyle=orthogonalEdgeStyle;rounded=0;orthogonalLoop=1;jettySize=auto;html=1;exitX=0.5;exitY=1;exitDx=0;exitDy=0;entryX=0.5;entryY=0;entryDx=0;entryDy=0;fontColor=#000000;" parent="1" source="Bhu07w7uQ9w6N7AYjYX2-11" target="Bhu07w7uQ9w6N7AYjYX2-24" edge="1">
          <mxGeometry relative="1" as="geometry">
            <Array as="points">
              <mxPoint x="705" y="270" />
              <mxPoint x="560" y="270" />
              <mxPoint x="560" y="410" />
              <mxPoint x="705" y="410" />
            </Array>
          </mxGeometry>
        </mxCell>
        <mxCell id="Bhu07w7uQ9w6N7AYjYX2-26" value="" style="group;flipV=0;flipH=1;" parent="1" vertex="1" connectable="0">
          <mxGeometry x="581" y="600" width="259" height="130" as="geometry" />
        </mxCell>
        <mxCell id="Bhu07w7uQ9w6N7AYjYX2-27" value="&lt;p style=&quot;line-height: 18px;&quot;&gt;Compute the relative power of functionally distinct frequency bands &lt;br&gt;(alpha, beta, theta, gamma, delta) for &lt;b&gt;PSD of&lt;/b&gt;&amp;nbsp;&lt;b&gt;each channel + &lt;/b&gt;for &lt;b&gt;mean PSD&lt;/b&gt;. &lt;br&gt;&lt;/p&gt;&lt;i&gt;&lt;b&gt;get_ampl_of_brain_waves&lt;span style=&quot;border-color: var(--border-color); font-family: Menlo, Monaco, &amp;quot;Courier New&amp;quot;, monospace;&quot;&gt;()&lt;/span&gt;&lt;/b&gt;&lt;/i&gt;" style="html=1;align=center;verticalAlign=middle;rounded=1;absoluteArcSize=1;arcSize=25;dashed=0;fontFamily=Helvetica;fontSize=12;whiteSpace=wrap;container=0;noLabel=0;imageAlign=center;" parent="Bhu07w7uQ9w6N7AYjYX2-26" vertex="1">
          <mxGeometry y="10.830625000000001" width="236.34980988593156" height="119.16937500000002" as="geometry" />
        </mxCell>
        <mxCell id="Bhu07w7uQ9w6N7AYjYX2-28" value="pinIn 2" style="fontStyle=0;labelPosition=left;verticalLabelPosition=middle;align=right;verticalAlign=middle;spacingLeft=2;fontFamily=Helvetica;fontSize=12;flipH=0;resizable=0;container=0;noLabel=1;" parent="Bhu07w7uQ9w6N7AYjYX2-26" vertex="1">
          <mxGeometry x="236.82250950570344" y="56.582924836601315" width="10" height="30" as="geometry" />
        </mxCell>
        <mxCell id="Bhu07w7uQ9w6N7AYjYX2-29" value="pinIn 1" style="fontStyle=0;labelPosition=center;verticalLabelPosition=top;align=center;verticalAlign=bottom;spacingLeft=2;fontFamily=Helvetica;fontSize=12;resizable=0;container=0;noLabel=1;" parent="Bhu07w7uQ9w6N7AYjYX2-26" vertex="1">
          <mxGeometry x="108.77999999999999" y="1.2022058823529411" width="30" height="10" as="geometry" />
        </mxCell>
        <mxCell id="Bhu07w7uQ9w6N7AYjYX2-30" style="edgeStyle=orthogonalEdgeStyle;rounded=0;orthogonalLoop=1;jettySize=auto;html=1;exitX=0.25;exitY=1;exitDx=0;exitDy=0;fontColor=#000000;entryX=0.25;entryY=0;entryDx=0;entryDy=0;" parent="1" source="Bhu07w7uQ9w6N7AYjYX2-11" target="Bhu07w7uQ9w6N7AYjYX2-29" edge="1">
          <mxGeometry relative="1" as="geometry">
            <mxPoint x="680" y="580" as="targetPoint" />
            <Array as="points">
              <mxPoint x="698" y="250" />
              <mxPoint x="520" y="250" />
              <mxPoint x="520" y="560" />
              <mxPoint x="698" y="560" />
              <mxPoint x="698" y="580" />
            </Array>
          </mxGeometry>
        </mxCell>
        <mxCell id="Bhu07w7uQ9w6N7AYjYX2-33" style="edgeStyle=orthogonalEdgeStyle;rounded=0;orthogonalLoop=1;jettySize=auto;html=1;exitX=0.5;exitY=1;exitDx=0;exitDy=0;entryX=0.5;entryY=0;entryDx=0;entryDy=0;fontFamily=Helvetica;fontColor=#000000;" parent="1" source="Bhu07w7uQ9w6N7AYjYX2-22" target="Bhu07w7uQ9w6N7AYjYX2-29" edge="1">
          <mxGeometry relative="1" as="geometry" />
        </mxCell>
        <mxCell id="Bhu07w7uQ9w6N7AYjYX2-34" value="2" style="ellipse;fontColor=#000000;" parent="1" vertex="1">
          <mxGeometry x="920" y="620" width="30" height="30" as="geometry" />
        </mxCell>
        <mxCell id="Bhu07w7uQ9w6N7AYjYX2-35" value="3" style="ellipse;fontColor=#000000;" parent="1" vertex="1">
          <mxGeometry x="920" y="656.77" width="30" height="30" as="geometry" />
        </mxCell>
        <mxCell id="Bhu07w7uQ9w6N7AYjYX2-36" value="4" style="ellipse;fontColor=#000000;" parent="1" vertex="1">
          <mxGeometry x="920" y="696" width="30" height="30" as="geometry" />
        </mxCell>
        <mxCell id="Bhu07w7uQ9w6N7AYjYX2-37" value="" style="edgeStyle=orthogonalEdgeStyle;rounded=0;orthogonalLoop=1;jettySize=auto;html=1;fontFamily=Helvetica;fontColor=#000000;" parent="1" source="Bhu07w7uQ9w6N7AYjYX2-28" target="Bhu07w7uQ9w6N7AYjYX2-36" edge="1">
          <mxGeometry relative="1" as="geometry">
            <Array as="points">
              <mxPoint x="860" y="680" />
              <mxPoint x="860" y="710" />
            </Array>
          </mxGeometry>
        </mxCell>
        <mxCell id="Bhu07w7uQ9w6N7AYjYX2-39" style="edgeStyle=orthogonalEdgeStyle;rounded=0;orthogonalLoop=1;jettySize=auto;html=1;entryX=0;entryY=0.5;entryDx=0;entryDy=0;fontFamily=Helvetica;fontColor=#000000;" parent="1" source="Bhu07w7uQ9w6N7AYjYX2-28" target="Bhu07w7uQ9w6N7AYjYX2-35" edge="1">
          <mxGeometry relative="1" as="geometry" />
        </mxCell>
        <mxCell id="Bhu07w7uQ9w6N7AYjYX2-40" style="edgeStyle=orthogonalEdgeStyle;rounded=0;orthogonalLoop=1;jettySize=auto;html=1;exitX=1;exitY=0.25;exitDx=0;exitDy=0;entryX=0;entryY=0.5;entryDx=0;entryDy=0;fontFamily=Helvetica;fontColor=#000000;" parent="1" source="Bhu07w7uQ9w6N7AYjYX2-28" target="Bhu07w7uQ9w6N7AYjYX2-34" edge="1">
          <mxGeometry relative="1" as="geometry">
            <Array as="points">
              <mxPoint x="860" y="665" />
              <mxPoint x="860" y="635" />
            </Array>
          </mxGeometry>
        </mxCell>
        <mxCell id="Bhu07w7uQ9w6N7AYjYX2-41" value="" style="group;flipV=0;flipH=1;" parent="1" vertex="1" connectable="0">
          <mxGeometry x="579.5" y="780" width="240.5" height="110" as="geometry" />
        </mxCell>
        <mxCell id="Bhu07w7uQ9w6N7AYjYX2-42" value="&lt;p style=&quot;line-height: 18px;&quot;&gt;Compute the relative power of noisy frequency bands&amp;nbsp;&lt;span style=&quot;border-color: var(--border-color);&quot;&gt;for &lt;b&gt;PSD of&lt;/b&gt;&amp;nbsp;&lt;/span&gt;&lt;b style=&quot;border-color: var(--border-color);&quot;&gt;each channel + &lt;/b&gt;&lt;span style=&quot;border-color: var(--border-color);&quot;&gt;for&lt;/span&gt;&lt;b style=&quot;border-color: var(--border-color);&quot;&gt; mean PSD&lt;/b&gt;.&amp;nbsp;&lt;br&gt;&lt;/p&gt;&lt;b&gt;&lt;i&gt;get_ampl_of_noisy_freqs&lt;/i&gt;&lt;/b&gt;&lt;i&gt;&lt;b&gt;&lt;span style=&quot;border-color: var(--border-color); font-family: Menlo, Monaco, &amp;quot;Courier New&amp;quot;, monospace;&quot;&gt;()&lt;/span&gt;&lt;/b&gt;&lt;/i&gt;" style="html=1;align=center;verticalAlign=middle;rounded=1;absoluteArcSize=1;arcSize=25;dashed=0;fontFamily=Helvetica;fontSize=12;whiteSpace=wrap;container=0;noLabel=0;imageAlign=center;" parent="Bhu07w7uQ9w6N7AYjYX2-41" vertex="1">
          <mxGeometry y="9.775333333333332" width="225.77551020408166" height="100.22466666666666" as="geometry" />
        </mxCell>
        <mxCell id="Bhu07w7uQ9w6N7AYjYX2-43" value="pinIn 2" style="fontStyle=0;labelPosition=left;verticalLabelPosition=middle;align=right;verticalAlign=middle;spacingLeft=2;fontFamily=Helvetica;fontSize=12;flipH=0;resizable=0;container=0;noLabel=1;" parent="Bhu07w7uQ9w6N7AYjYX2-41" vertex="1">
          <mxGeometry x="225.3933079847909" y="48.155555555555566" width="10" height="30" as="geometry" />
        </mxCell>
        <mxCell id="Bhu07w7uQ9w6N7AYjYX2-44" value="pinIn 1" style="fontStyle=0;labelPosition=center;verticalLabelPosition=top;align=center;verticalAlign=bottom;spacingLeft=2;fontFamily=Helvetica;fontSize=12;resizable=0;container=0;noLabel=1;" parent="Bhu07w7uQ9w6N7AYjYX2-41" vertex="1">
          <mxGeometry x="101.01" y="-0.505882352941176" width="30" height="10" as="geometry" />
        </mxCell>
        <mxCell id="Bhu07w7uQ9w6N7AYjYX2-45" style="edgeStyle=orthogonalEdgeStyle;rounded=0;orthogonalLoop=1;jettySize=auto;html=1;exitX=0.75;exitY=1;exitDx=0;exitDy=0;fontFamily=Helvetica;fontColor=#000000;entryX=0.5;entryY=0;entryDx=0;entryDy=0;" parent="1" source="Bhu07w7uQ9w6N7AYjYX2-22" target="Bhu07w7uQ9w6N7AYjYX2-44" edge="1">
          <mxGeometry relative="1" as="geometry">
            <Array as="points">
              <mxPoint x="713" y="560" />
              <mxPoint x="980" y="560" />
              <mxPoint x="980" y="760" />
              <mxPoint x="696" y="760" />
            </Array>
            <mxPoint x="650" y="780" as="targetPoint" />
          </mxGeometry>
        </mxCell>
        <mxCell id="Bhu07w7uQ9w6N7AYjYX2-46" value="5" style="ellipse;fontColor=#000000;" parent="1" vertex="1">
          <mxGeometry x="920" y="798.16" width="30" height="30" as="geometry" />
        </mxCell>
        <mxCell id="Bhu07w7uQ9w6N7AYjYX2-47" value="6" style="ellipse;fontColor=#000000;" parent="1" vertex="1">
          <mxGeometry x="920" y="860" width="30" height="30" as="geometry" />
        </mxCell>
        <mxCell id="Bhu07w7uQ9w6N7AYjYX2-48" style="edgeStyle=orthogonalEdgeStyle;rounded=0;orthogonalLoop=1;jettySize=auto;html=1;fontFamily=Helvetica;fontColor=#000000;entryX=0;entryY=0.5;entryDx=0;entryDy=0;" parent="1" source="Bhu07w7uQ9w6N7AYjYX2-43" target="Bhu07w7uQ9w6N7AYjYX2-46" edge="1">
          <mxGeometry relative="1" as="geometry">
            <Array as="points">
              <mxPoint x="880" y="840" />
              <mxPoint x="880" y="813" />
            </Array>
            <mxPoint x="900" y="840" as="targetPoint" />
          </mxGeometry>
        </mxCell>
        <mxCell id="Bhu07w7uQ9w6N7AYjYX2-51" style="edgeStyle=orthogonalEdgeStyle;rounded=0;orthogonalLoop=1;jettySize=auto;html=1;exitX=1;exitY=0.75;exitDx=0;exitDy=0;entryX=0;entryY=0.5;entryDx=0;entryDy=0;fontFamily=Helvetica;fontColor=#000000;" parent="1" source="Bhu07w7uQ9w6N7AYjYX2-43" target="Bhu07w7uQ9w6N7AYjYX2-47" edge="1">
          <mxGeometry relative="1" as="geometry">
            <Array as="points">
              <mxPoint x="880" y="851" />
              <mxPoint x="880" y="875" />
            </Array>
          </mxGeometry>
        </mxCell>
        <mxCell id="Bhu07w7uQ9w6N7AYjYX2-52" value="" style="group" parent="1" vertex="1" connectable="0">
          <mxGeometry x="560" y="990" width="260" height="120" as="geometry" />
        </mxCell>
        <mxCell id="Bhu07w7uQ9w6N7AYjYX2-53" value="&lt;p style=&quot;border-color: var(--border-color);&quot;&gt;&lt;font style=&quot;border-color: var(--border-color);&quot;&gt;Save data of noisy frequencies &lt;br&gt;for &lt;b&gt;mean PSD&lt;/b&gt; + for &lt;b&gt;PSD of each channel&lt;/b&gt; and brain waves for&amp;nbsp;&amp;nbsp;&lt;b style=&quot;border-color: var(--border-color);&quot;&gt;mean&lt;/b&gt;&lt;/font&gt;&amp;nbsp;&lt;b&gt;PSD&lt;/b&gt; in a dictionary&amp;nbsp;&lt;/p&gt;&lt;p style=&quot;border-color: var(--border-color);&quot;&gt;&lt;b style=&quot;background-color: initial; border-color: var(--border-color);&quot;&gt;&lt;i style=&quot;border-color: var(--border-color);&quot;&gt;make_simple_metric_psd()&lt;/i&gt;&lt;/b&gt;&lt;/p&gt;" style="html=1;align=center;verticalAlign=middle;rounded=1;absoluteArcSize=1;arcSize=25;dashed=0;fontFamily=Helvetica;fontSize=12;whiteSpace=wrap;container=0;noLabel=0;imageAlign=center;" parent="Bhu07w7uQ9w6N7AYjYX2-52" vertex="1">
          <mxGeometry x="10" y="12" width="240" height="96" as="geometry" />
        </mxCell>
        <mxCell id="Bhu07w7uQ9w6N7AYjYX2-54" value="pinOut 1" style="fontStyle=0;labelPosition=right;verticalLabelPosition=middle;align=left;verticalAlign=middle;spacingLeft=2;fontFamily=Helvetica;fontSize=12;resizable=0;container=0;noLabel=1;" parent="Bhu07w7uQ9w6N7AYjYX2-52" vertex="1">
          <mxGeometry x="250" y="42" width="10" height="30" as="geometry" />
        </mxCell>
        <mxCell id="Bhu07w7uQ9w6N7AYjYX2-55" value="pinIn 1" style="fontStyle=0;labelPosition=center;verticalLabelPosition=top;align=center;verticalAlign=bottom;spacingLeft=2;fontFamily=Helvetica;fontSize=12;resizable=0;container=0;noLabel=1;" parent="Bhu07w7uQ9w6N7AYjYX2-52" vertex="1">
          <mxGeometry x="35" y="2" width="30" height="10" as="geometry" />
        </mxCell>
        <mxCell id="Bhu07w7uQ9w6N7AYjYX2-56" value="pinIn 1" style="fontStyle=0;labelPosition=center;verticalLabelPosition=top;align=center;verticalAlign=bottom;spacingLeft=2;fontFamily=Helvetica;fontSize=12;resizable=0;container=0;noLabel=1;" parent="Bhu07w7uQ9w6N7AYjYX2-52" vertex="1">
          <mxGeometry x="191" y="2" width="30" height="10" as="geometry" />
        </mxCell>
        <mxCell id="Bhu07w7uQ9w6N7AYjYX2-60" style="edgeStyle=orthogonalEdgeStyle;rounded=0;orthogonalLoop=1;jettySize=auto;html=1;entryX=0.5;entryY=0;entryDx=0;entryDy=0;fontFamily=Helvetica;fontColor=#000000;" parent="1" source="Bhu07w7uQ9w6N7AYjYX2-57" target="Bhu07w7uQ9w6N7AYjYX2-55" edge="1">
          <mxGeometry relative="1" as="geometry" />
        </mxCell>
        <mxCell id="Bhu07w7uQ9w6N7AYjYX2-57" value="4" style="ellipse;fontFamily=Helvetica;fontColor=#000000;" parent="1" vertex="1">
          <mxGeometry x="595" y="930" width="30" height="30" as="geometry" />
        </mxCell>
        <mxCell id="Bhu07w7uQ9w6N7AYjYX2-61" style="edgeStyle=orthogonalEdgeStyle;rounded=0;orthogonalLoop=1;jettySize=auto;html=1;entryX=0.5;entryY=0;entryDx=0;entryDy=0;fontFamily=Helvetica;fontColor=#000000;" parent="1" source="Bhu07w7uQ9w6N7AYjYX2-58" target="Bhu07w7uQ9w6N7AYjYX2-56" edge="1">
          <mxGeometry relative="1" as="geometry" />
        </mxCell>
        <mxCell id="Bhu07w7uQ9w6N7AYjYX2-58" value="6" style="ellipse;fontFamily=Helvetica;fontColor=#000000;" parent="1" vertex="1">
          <mxGeometry x="751" y="930" width="30" height="30" as="geometry" />
        </mxCell>
        <mxCell id="Bhu07w7uQ9w6N7AYjYX2-62" value="Output:&lt;br&gt;&lt;br&gt;List of QC derivatives (figures)&lt;br&gt;Dict as Simple metric,&lt;br&gt;List of mean noise frequencies &lt;br&gt;(used in muscle detection)" style="html=1;dashed=0;fontFamily=Helvetica;fontSize=12;fontColor=rgb(0, 0, 0);align=center;strokeColor=rgb(0, 0, 0);fillColor=rgb(255, 255, 255);" parent="1" vertex="1">
          <mxGeometry x="990" y="1002" width="200" height="90" as="geometry" />
        </mxCell>
        <mxCell id="Bhu07w7uQ9w6N7AYjYX2-63" style="edgeStyle=orthogonalEdgeStyle;rounded=0;orthogonalLoop=1;jettySize=auto;html=1;fontFamily=Helvetica;fontColor=#000000;entryX=0;entryY=0.5;entryDx=0;entryDy=0;" parent="1" source="Bhu07w7uQ9w6N7AYjYX2-54" target="Bhu07w7uQ9w6N7AYjYX2-62" edge="1">
          <mxGeometry relative="1" as="geometry">
            <mxPoint x="930" y="1040" as="targetPoint" />
          </mxGeometry>
        </mxCell>
        <mxCell id="Bhu07w7uQ9w6N7AYjYX2-69" style="edgeStyle=orthogonalEdgeStyle;rounded=0;orthogonalLoop=1;jettySize=auto;html=1;entryX=0.125;entryY=0;entryDx=0;entryDy=0;entryPerimeter=0;fontFamily=Helvetica;fontColor=#000000;" parent="1" source="Bhu07w7uQ9w6N7AYjYX2-64" target="Bhu07w7uQ9w6N7AYjYX2-62" edge="1">
          <mxGeometry relative="1" as="geometry" />
        </mxCell>
        <mxCell id="Bhu07w7uQ9w6N7AYjYX2-64" value="1" style="ellipse;fontColor=#000000;" parent="1" vertex="1">
          <mxGeometry x="1000" y="930" width="30" height="30" as="geometry" />
        </mxCell>
        <mxCell id="Bhu07w7uQ9w6N7AYjYX2-70" style="edgeStyle=orthogonalEdgeStyle;rounded=0;orthogonalLoop=1;jettySize=auto;html=1;entryX=0.375;entryY=-0.014;entryDx=0;entryDy=0;entryPerimeter=0;fontFamily=Helvetica;fontColor=#000000;" parent="1" source="Bhu07w7uQ9w6N7AYjYX2-65" target="Bhu07w7uQ9w6N7AYjYX2-62" edge="1">
          <mxGeometry relative="1" as="geometry" />
        </mxCell>
        <mxCell id="Bhu07w7uQ9w6N7AYjYX2-65" value="2" style="ellipse;fontColor=#000000;" parent="1" vertex="1">
          <mxGeometry x="1050" y="930" width="30" height="30" as="geometry" />
        </mxCell>
        <mxCell id="Bhu07w7uQ9w6N7AYjYX2-71" style="edgeStyle=orthogonalEdgeStyle;rounded=0;orthogonalLoop=1;jettySize=auto;html=1;entryX=0.628;entryY=-0.003;entryDx=0;entryDy=0;entryPerimeter=0;fontFamily=Helvetica;fontColor=#000000;" parent="1" source="Bhu07w7uQ9w6N7AYjYX2-66" target="Bhu07w7uQ9w6N7AYjYX2-62" edge="1">
          <mxGeometry relative="1" as="geometry" />
        </mxCell>
        <mxCell id="Bhu07w7uQ9w6N7AYjYX2-66" value="3" style="ellipse;fontColor=#000000;" parent="1" vertex="1">
          <mxGeometry x="1100" y="930" width="30" height="30" as="geometry" />
        </mxCell>
        <mxCell id="Bhu07w7uQ9w6N7AYjYX2-72" style="edgeStyle=orthogonalEdgeStyle;rounded=0;orthogonalLoop=1;jettySize=auto;html=1;entryX=0.873;entryY=-0.019;entryDx=0;entryDy=0;entryPerimeter=0;fontFamily=Helvetica;fontColor=#000000;" parent="1" source="Bhu07w7uQ9w6N7AYjYX2-67" target="Bhu07w7uQ9w6N7AYjYX2-62" edge="1">
          <mxGeometry relative="1" as="geometry" />
        </mxCell>
        <mxCell id="Bhu07w7uQ9w6N7AYjYX2-67" value="5" style="ellipse;fontColor=#000000;" parent="1" vertex="1">
          <mxGeometry x="1150" y="930" width="30" height="30" as="geometry" />
        </mxCell>
        <mxCell id="Bhu07w7uQ9w6N7AYjYX2-75" value="" style="ellipse;html=1;shape=endState;fillColor=strokeColor;fontFamily=Helvetica;fontColor=#000000;" parent="1" vertex="1">
          <mxGeometry x="675" y="1150" width="30" height="30" as="geometry" />
        </mxCell>
        <mxCell id="6FWGMRJ9uvxCyzCyQhDj-2" value="Outputs:&lt;br&gt;&lt;p style=&quot;border-color: var(--border-color); line-height: 18px;&quot;&gt;(2) figure (pie chart&amp;nbsp;&lt;span style=&quot;border-color: var(--border-color);&quot;&gt;showing the relative amplitudes &lt;br&gt;of frequency bands for &lt;/span&gt;&lt;b style=&quot;border-color: var(--border-color);&quot;&gt;mean PSD&lt;/b&gt;),&amp;nbsp;&lt;br&gt;&lt;span style=&quot;background-color: initial;&quot;&gt;(3) Data Frames (absolute and relative amplitudes &lt;br&gt;of frequency bands for&lt;/span&gt;&lt;span style=&quot;background-color: initial;&quot;&gt;&amp;nbsp;&lt;/span&gt;&lt;b style=&quot;background-color: initial; border-color: var(--border-color);&quot;&gt;each channel&lt;/b&gt;&lt;span style=&quot;background-color: initial;&quot;&gt;),&amp;nbsp;&lt;br&gt;&lt;/span&gt;&lt;span style=&quot;background-color: initial;&quot;&gt;(4) Dictionary for simple metric (&lt;/span&gt;relative amplitudes&lt;br style=&quot;border-color: var(--border-color);&quot;&gt;of frequency bands for&amp;nbsp;&lt;b style=&quot;border-color: var(--border-color);&quot;&gt;mean PSD&lt;/b&gt;&lt;span style=&quot;background-color: initial;&quot;&gt;)&lt;/span&gt;&lt;/p&gt;&lt;i style=&quot;border-color: var(--border-color);&quot;&gt;&lt;/i&gt;&lt;font color=&quot;#ff4112&quot;&gt;&lt;br&gt;&lt;/font&gt;" style="text;html=1;align=center;verticalAlign=middle;resizable=0;points=[];autosize=1;strokeColor=none;fillColor=none;" parent="1" vertex="1">
          <mxGeometry x="1030" y="590" width="300" height="170" as="geometry" />
        </mxCell>
        <mxCell id="in3bTgU2OvK3J4Og6mkB-1" value="Outputs:&lt;br&gt;(5) figure (pie chart&amp;nbsp;showing the relative amplitudes&lt;br style=&quot;border-color: var(--border-color);&quot;&gt;of &lt;b&gt;noisy&lt;/b&gt; frequency bands for&amp;nbsp;&lt;b style=&quot;border-color: var(--border-color);&quot;&gt;mean PSD&lt;/b&gt;),&amp;nbsp;&lt;span style=&quot;border-color: var(--border-color); background-color: initial;&quot;&gt;&lt;br style=&quot;border-color: var(--border-color);&quot;&gt;&lt;/span&gt;&lt;span style=&quot;border-color: var(--border-color); background-color: initial;&quot;&gt;(6) Dictionary for simple metric (absolute and&amp;nbsp;&lt;/span&gt;relative &lt;br&gt;amplitudes of&lt;b&gt; noisy &lt;/b&gt;frequency bands &lt;br&gt;for&amp;nbsp;&lt;b style=&quot;border-color: var(--border-color);&quot;&gt;mean PSD &lt;/b&gt;&lt;span style=&quot;border-color: var(--border-color);&quot;&gt;and&lt;/span&gt;&lt;b style=&quot;border-color: var(--border-color);&quot;&gt; &lt;/b&gt;&lt;span style=&quot;border-color: var(--border-color);&quot;&gt;for&lt;/span&gt;&lt;b style=&quot;border-color: var(--border-color);&quot;&gt; each channel&lt;/b&gt;&lt;span style=&quot;border-color: var(--border-color); background-color: initial;&quot;&gt;)&lt;/span&gt;" style="text;html=1;align=center;verticalAlign=middle;resizable=0;points=[];autosize=1;strokeColor=none;fillColor=none;fontColor=#000000;" parent="1" vertex="1">
          <mxGeometry x="1030" y="785" width="300" height="100" as="geometry" />
        </mxCell>
        <mxCell id="in3bTgU2OvK3J4Og6mkB-3" value="" style="edgeStyle=orthogonalEdgeStyle;rounded=0;orthogonalLoop=1;jettySize=auto;html=1;fontColor=#000000;" parent="1" source="Bhu07w7uQ9w6N7AYjYX2-53" target="Bhu07w7uQ9w6N7AYjYX2-75" edge="1">
          <mxGeometry relative="1" as="geometry" />
        </mxCell>
      </root>
    </mxGraphModel>
  </diagram>
</mxfile>
